<?xml version="1.0" ?><svg clip-rule="evenodd" fill-rule="evenodd" image-rendering="optimizeQuality" shape-rendering="geometricPrecision" text-rendering="geometricPrecision" viewBox="0 0 500 500" xmlns="http://www.w3.org/2000/svg"><defs><radialGradient cx="250" cy="242.562" fx="250" fy="242.562" gradientUnits="userSpaceOnUse" id="a" r="137.165"><stop offset="0" stop-color="#0af"/><stop offset="1" stop-color="#008BFF"/></radialGradient></defs><path d="M369 445l-102-75c-10-7-24-7-34 0l-102 75c-5 3-12-2-10-8l39-120c3-12-1-25-11-32l-102-74c-5-4-2-12 4-13l126 1c13-1 24-9 28-20l39-120c2-6 10-6 12 0l39 120c4 11 15 19 28 20l126-1c6 1 9 9 4 13l-102 74c-10 7-14 20-11 32l39 120c2 6-5 11-10 8z" fill="url(#a)" stroke="#434242" stroke-width="10"/></svg>